<?xml version="1.0" standalone="no"?>
<!DOCTYPE svg PUBLIC "-//W3C//DTD SVG 20010904//EN"
 "http://www.w3.org/TR/2001/REC-SVG-20010904/DTD/svg10.dtd">
<svg version="1.0" xmlns="http://www.w3.org/2000/svg"
 width="560.000000pt" height="445.000000pt" viewBox="0 0 560.000000 445.000000"
 preserveAspectRatio="xMidYMid meet">

<g transform="translate(0.000000,445.000000) scale(0.100000,-0.100000)"
fill="#000000" stroke="none">
<path d="M3400 4157 c0 -4 20 -73 44 -155 47 -155 77 -271 95 -362 13 -67 41
-337 41 -402 0 -46 -1 -47 -37 -54 -45 -9 -243 1 -343 17 l-75 11 -46 -51
c-26 -29 -61 -63 -79 -76 l-33 -25 -17 38 c-10 21 -29 46 -44 55 -29 20 -32
14 -11 -23 16 -28 20 -76 6 -84 -4 -3 -16 3 -25 13 -15 16 -22 17 -47 8 -21
-9 -37 -8 -60 0 -26 10 -32 9 -47 -8 -9 -10 -20 -19 -24 -19 -14 0 -9 70 8
101 15 29 15 30 -5 20 -27 -15 -61 -60 -61 -82 0 -11 -4 -19 -9 -19 -5 0 -44
34 -87 76 l-77 76 -51 -7 c-150 -21 -186 -24 -242 -25 -34 0 -82 3 -108 6
l-46 7 0 76 c0 190 53 488 134 750 20 63 34 116 32 118 -2 2 -29 -56 -59 -129
-111 -264 -229 -636 -252 -799 -7 -45 -6 -47 42 -92 53 -52 64 -55 108 -30 25
15 64 18 235 21 l205 3 37 -48 c71 -94 48 -110 -69 -47 -74 39 -110 42 -185
15 -64 -24 -227 -68 -403 -111 -71 -17 -138 -33 -147 -36 -16 -5 -18 3 -18 63
0 236 43 491 144 845 24 87 111 294 127 304 5 3 9 13 9 22 -1 47 -198 -344
-274 -545 -52 -135 -86 -263 -116 -443 -12 -69 -28 -153 -37 -187 l-15 -62 67
-63 c101 -94 91 -91 162 -48 161 97 426 166 607 158 85 -3 97 -7 145 -37 40
-26 49 -36 38 -42 -24 -14 -207 -31 -256 -24 l-46 6 -85 -81 c-115 -110 -323
-289 -443 -380 -54 -41 -115 -87 -134 -103 -48 -36 -106 -51 -145 -38 l-31 11
6 -198 c4 -132 12 -236 26 -317 34 -191 67 -307 180 -623 27 -77 151 -345 157
-339 1 1 -13 47 -33 102 -65 186 -103 330 -133 510 -37 223 -50 367 -50 558
l0 147 83 83 c137 138 249 241 310 285 31 24 90 72 130 108 39 37 105 89 146
116 60 41 86 52 150 64 42 7 95 13 119 14 l44 0 -40 -37 c-102 -97 -246 -208
-268 -205 -31 4 -35 -22 -35 -237 0 -342 44 -869 97 -1176 21 -123 67 -295
113 -425 50 -138 143 -329 176 -360 l26 -25 -25 46 c-98 174 -177 500 -210
859 -24 260 -29 530 -17 853 12 294 12 298 -9 324 -23 30 -32 16 94 161 84 97
153 151 176 137 11 -7 6 -24 -32 -102 -30 -60 -31 -67 -25 -150 12 -168 109
-536 185 -697 34 -73 37 -77 42 -51 6 32 30 47 30 18 0 -10 4 -24 9 -32 32
-51 211 555 228 769 5 71 4 79 -25 130 -102 184 -4 151 178 -60 64 -76 74
-106 44 -149 -14 -19 -15 -37 -10 -95 27 -277 24 -805 -4 -1084 -32 -311 -116
-660 -196 -815 -15 -28 -15 -31 -1 -19 19 16 72 108 91 159 8 21 33 88 56 148
74 192 140 446 155 595 3 36 10 90 15 120 35 210 63 744 53 1010 l-6 150 -24
0 c-29 0 -223 149 -266 204 l-28 36 35 0 c19 0 70 -5 112 -11 64 -10 83 -17
119 -48 24 -20 65 -52 91 -71 27 -19 78 -61 114 -93 36 -33 81 -69 101 -82 19
-13 81 -65 137 -117 55 -51 121 -109 145 -128 24 -19 59 -55 78 -79 l34 -45
-3 -175 c-6 -391 -57 -693 -174 -1021 -22 -63 -47 -128 -55 -143 -8 -16 -13
-31 -10 -33 7 -8 137 269 179 381 152 410 202 639 214 978 l7 176 -36 -11
c-27 -8 -43 -8 -67 2 -32 13 -273 184 -345 244 -130 109 -193 165 -281 253
l-98 98 -120 0 c-111 1 -196 15 -196 33 0 9 79 58 108 67 36 10 180 8 247 -4
123 -23 274 -73 387 -130 l117 -59 45 43 c25 23 61 56 81 74 l36 32 -15 42
c-9 23 -23 89 -31 147 -37 249 -104 474 -217 720 -59 130 -161 320 -173 320
-1 0 24 -61 56 -135 33 -75 63 -152 68 -173 5 -20 23 -85 40 -144 65 -221 101
-455 101 -654 0 -68 -3 -124 -8 -124 -4 0 -23 5 -42 10 -19 6 -132 35 -250 66
-118 30 -239 63 -268 74 -75 28 -104 25 -189 -20 -112 -59 -127 -52 -74 32 49
77 49 77 265 67 133 -6 201 -13 231 -25 l43 -16 56 41 c51 38 56 45 56 81 0
72 -167 608 -253 812 -47 109 -76 169 -77 155z"/>
</g>
</svg>
